# xmcd
#
# Track frame offsets:
#	150
#	13536
#	24812
#	36353
#	54951
#	66757
#	80827
#	87721
#	101394
#	118796
#	128638
#	139098
#	149539
#	162903
#	179832
#	191939
#	201317
#	212892
#
# Disc length: 3000 seconds
#
# Revision: 1
# Processed by: cddbd v1.5.2PL0 Copyright (c) Steve Scherf et al.
# Submitted via: audiograbber 1.83.01
#
DISCID=0f0bb612
DTITLE=Various Artist - Blues Brother - Soul Sister
DYEAR=1900
DGENRE=R&B
TTITLE0=Eddie Floyd - Knock On Wood
TTITLE1=John Lee Hooker - Boom Boom
TTITLE2=Maxine Brown - Oh No Not My Baby
TTITLE3=Ben E. King - Supernatural Thing
TTITLE4=Ray Charles - If I Give You My Love
TTITLE5=Tymes - People
TTITLE6=Maurice Williams and The Zodiacs - Stay
TTITLE7=Nina Simone - Ain't Got No/I Got Life
TTITLE8=Ike and Tina Turner - River Deep Mountain High
TTITLE9=Wilson Pickett - I'm Gonna Love You
TTITLE10=Drifters - Up On The Roof
TTITLE11=Eddie Floyd - Bring It On Home To Me
TTITLE12=Kim Weston - It's Too Late
TTITLE13=Brook Benton - Rainy Night In Georgia
TTITLE14=Sam and Dave - Soothe Me
TTITLE15=Al Jarreau - Ain't No Sunshine
TTITLE16=Martha Reeves And The Vandellas - Dancing In The Streets
TTITLE17=Aaron Neville - Tell It Like It Is
EXTD=
EXTT0=
EXTT1=
EXTT2=
EXTT3=
EXTT4=
EXTT5=
EXTT6=
EXTT7=
EXTT8=
EXTT9=
EXTT10=
EXTT11=
EXTT12=
EXTT13=
EXTT14=
EXTT15=
EXTT16=
EXTT17=
PLAYORDER=
